<?xml version="1.0" encoding="UTF-8" standalone="no"?>
<!-- Created with Inkscape (http://www.inkscape.org/) -->

<svg
   xmlns:dc="http://purl.org/dc/elements/1.1/"
   xmlns:cc="http://creativecommons.org/ns#"
   xmlns:rdf="http://www.w3.org/1999/02/22-rdf-syntax-ns#"
   xmlns:svg="http://www.w3.org/2000/svg"
   xmlns="http://www.w3.org/2000/svg"
   xmlns:sodipodi="http://sodipodi.sourceforge.net/DTD/sodipodi-0.dtd"
   xmlns:inkscape="http://www.inkscape.org/namespaces/inkscape"
   width="206.32983mm"
   height="266.27164mm"
   viewBox="0 0 731.08996 943.48218"
   id="svg2"
   version="1.1"
   inkscape:version="0.91 r13725"
   sodipodi:docname="optimization_variablility.svg">
  <defs
     id="defs4">
    <clipPath
       id="clipPath3425"
       clipPathUnits="userSpaceOnUse">
      <path
         inkscape:connector-curvature="0"
         id="path3427"
         d="m 0,0 566.93,0 0,368.5 L 0,368.5 0,0 Z" />
    </clipPath>
    <clipPath
       id="clipPath3437"
       clipPathUnits="userSpaceOnUse">
      <path
         inkscape:connector-curvature="0"
         id="path3439"
         d="m 50.99,31.91 510.46,0 0,310.63 -510.46,0 0,-310.63 z" />
    </clipPath>
    <clipPath
       id="clipPath3836"
       clipPathUnits="userSpaceOnUse">
      <path
         inkscape:connector-curvature="0"
         id="path3838"
         d="m 0,0 566.93,0 0,368.5 L 0,368.5 0,0 Z" />
    </clipPath>
    <clipPath
       id="clipPath3848"
       clipPathUnits="userSpaceOnUse">
      <path
         inkscape:connector-curvature="0"
         id="path3850"
         d="m 40.98,31.91 520.47,0 0,310.63 -520.47,0 0,-310.63 z" />
    </clipPath>
    <clipPath
       id="clipPath4232"
       clipPathUnits="userSpaceOnUse">
      <path
         inkscape:connector-curvature="0"
         id="path4234"
         d="m 0,0 566.93,0 0,368.5 L 0,368.5 0,0 Z" />
    </clipPath>
    <clipPath
       id="clipPath4244"
       clipPathUnits="userSpaceOnUse">
      <path
         inkscape:connector-curvature="0"
         id="path4246"
         d="m 40.98,31.91 520.47,0 0,310.63 -520.47,0 0,-310.63 z" />
    </clipPath>
  </defs>
  <sodipodi:namedview
     id="base"
     pagecolor="#ffffff"
     bordercolor="#666666"
     borderopacity="1.0"
     inkscape:pageopacity="0.0"
     inkscape:pageshadow="2"
     inkscape:zoom="0.7"
     inkscape:cx="360.10353"
     inkscape:cy="433.49851"
     inkscape:document-units="px"
     inkscape:current-layer="layer1"
     showgrid="false"
     fit-margin-top="0"
     fit-margin-left="0"
     fit-margin-right="0"
     fit-margin-bottom="0"
     inkscape:window-width="1920"
     inkscape:window-height="1027"
     inkscape:window-x="0"
     inkscape:window-y="0"
     inkscape:window-maximized="1" />
  <metadata
     id="metadata7">
    <rdf:RDF>
      <cc:Work
         rdf:about="">
        <dc:format>image/svg+xml</dc:format>
        <dc:type
           rdf:resource="http://purl.org/dc/dcmitype/StillImage" />
        <dc:title></dc:title>
      </cc:Work>
    </rdf:RDF>
  </metadata>
  <g
     inkscape:label="Layer 1"
     inkscape:groupmode="layer"
     id="layer1"
     transform="translate(-2.5270075,-6.3353691)">
    <g
       transform="matrix(1.25,0,0,-1.25,24.954463,466.96037)"
       inkscape:label="optimization_variablility_lr"
       id="g3395">
      <g
         id="g3397" />
      <g
         id="g3399" />
      <g
         id="g3401" />
      <g
         id="g3403" />
      <g
         id="g3405" />
      <g
         id="g3407" />
      <g
         id="g3409" />
      <g
         id="g3411" />
      <g
         id="g3413" />
      <g
         id="g3415" />
      <g
         id="g3417" />
      <g
         id="g3419" />
      <g
         id="g3421">
        <g
           clip-path="url(#clipPath3425)"
           id="g3423">
          <path
             inkscape:connector-curvature="0"
             id="path3429"
             style="fill:#ffffff;fill-opacity:1;fill-rule:nonzero;stroke:#ffffff;stroke-width:1.07000005;stroke-linecap:round;stroke-linejoin:round;stroke-miterlimit:10;stroke-dasharray:none;stroke-opacity:1"
             d="m 0,0 566.93,0 0,368.5 L 0,368.5 0,0 Z" />
        </g>
      </g>
      <g
         id="g3431" />
      <g
         id="g3433">
        <g
           clip-path="url(#clipPath3437)"
           id="g3435">
          <path
             inkscape:connector-curvature="0"
             id="path3441"
             style="fill:#ffffff;fill-opacity:1;fill-rule:nonzero;stroke:none"
             d="m 50.99,31.91 510.46,0 0,310.63 -510.46,0 0,-310.63 z" />
          <path
             inkscape:connector-curvature="0"
             id="path3443"
             style="fill:none;stroke:#ebebeb;stroke-width:0.52999997;stroke-linecap:butt;stroke-linejoin:round;stroke-miterlimit:10;stroke-dasharray:none;stroke-opacity:1"
             d="m 50.99,81.32 510.46,0" />
          <path
             inkscape:connector-curvature="0"
             id="path3445"
             style="fill:none;stroke:#ebebeb;stroke-width:0.52999997;stroke-linecap:butt;stroke-linejoin:round;stroke-miterlimit:10;stroke-dasharray:none;stroke-opacity:1"
             d="m 50.99,151.92 510.46,0" />
          <path
             inkscape:connector-curvature="0"
             id="path3447"
             style="fill:none;stroke:#ebebeb;stroke-width:0.52999997;stroke-linecap:butt;stroke-linejoin:round;stroke-miterlimit:10;stroke-dasharray:none;stroke-opacity:1"
             d="m 50.99,222.52 510.46,0" />
          <path
             inkscape:connector-curvature="0"
             id="path3449"
             style="fill:none;stroke:#ebebeb;stroke-width:0.52999997;stroke-linecap:butt;stroke-linejoin:round;stroke-miterlimit:10;stroke-dasharray:none;stroke-opacity:1"
             d="m 50.99,293.12 510.46,0" />
          <path
             inkscape:connector-curvature="0"
             id="path3451"
             style="fill:none;stroke:#ebebeb;stroke-width:0.52999997;stroke-linecap:butt;stroke-linejoin:round;stroke-miterlimit:10;stroke-dasharray:none;stroke-opacity:1"
             d="m 151.54,31.91 0,310.63" />
          <path
             inkscape:connector-curvature="0"
             id="path3453"
             style="fill:none;stroke:#ebebeb;stroke-width:0.52999997;stroke-linecap:butt;stroke-linejoin:round;stroke-miterlimit:10;stroke-dasharray:none;stroke-opacity:1"
             d="m 306.22,31.91 0,310.63" />
          <path
             inkscape:connector-curvature="0"
             id="path3455"
             style="fill:none;stroke:#ebebeb;stroke-width:0.52999997;stroke-linecap:butt;stroke-linejoin:round;stroke-miterlimit:10;stroke-dasharray:none;stroke-opacity:1"
             d="m 460.9,31.91 0,310.63" />
          <path
             inkscape:connector-curvature="0"
             id="path3457"
             style="fill:none;stroke:#ebebeb;stroke-width:1.07000005;stroke-linecap:butt;stroke-linejoin:round;stroke-miterlimit:10;stroke-dasharray:none;stroke-opacity:1"
             d="m 50.99,46.03 510.46,0" />
          <path
             inkscape:connector-curvature="0"
             id="path3459"
             style="fill:none;stroke:#ebebeb;stroke-width:1.07000005;stroke-linecap:butt;stroke-linejoin:round;stroke-miterlimit:10;stroke-dasharray:none;stroke-opacity:1"
             d="m 50.99,116.62 510.46,0" />
          <path
             inkscape:connector-curvature="0"
             id="path3461"
             style="fill:none;stroke:#ebebeb;stroke-width:1.07000005;stroke-linecap:butt;stroke-linejoin:round;stroke-miterlimit:10;stroke-dasharray:none;stroke-opacity:1"
             d="m 50.99,187.22 510.46,0" />
          <path
             inkscape:connector-curvature="0"
             id="path3463"
             style="fill:none;stroke:#ebebeb;stroke-width:1.07000005;stroke-linecap:butt;stroke-linejoin:round;stroke-miterlimit:10;stroke-dasharray:none;stroke-opacity:1"
             d="m 50.99,257.82 510.46,0" />
          <path
             inkscape:connector-curvature="0"
             id="path3465"
             style="fill:none;stroke:#ebebeb;stroke-width:1.07000005;stroke-linecap:butt;stroke-linejoin:round;stroke-miterlimit:10;stroke-dasharray:none;stroke-opacity:1"
             d="m 50.99,328.42 510.46,0" />
          <path
             inkscape:connector-curvature="0"
             id="path3467"
             style="fill:none;stroke:#ebebeb;stroke-width:1.07000005;stroke-linecap:butt;stroke-linejoin:round;stroke-miterlimit:10;stroke-dasharray:none;stroke-opacity:1"
             d="m 74.19,31.91 0,310.63" />
          <path
             inkscape:connector-curvature="0"
             id="path3469"
             style="fill:none;stroke:#ebebeb;stroke-width:1.07000005;stroke-linecap:butt;stroke-linejoin:round;stroke-miterlimit:10;stroke-dasharray:none;stroke-opacity:1"
             d="m 228.88,31.91 0,310.63" />
          <path
             inkscape:connector-curvature="0"
             id="path3471"
             style="fill:none;stroke:#ebebeb;stroke-width:1.07000005;stroke-linecap:butt;stroke-linejoin:round;stroke-miterlimit:10;stroke-dasharray:none;stroke-opacity:1"
             d="m 383.56,31.91 0,310.63" />
          <path
             inkscape:connector-curvature="0"
             id="path3473"
             style="fill:none;stroke:#ebebeb;stroke-width:1.07000005;stroke-linecap:butt;stroke-linejoin:round;stroke-miterlimit:10;stroke-dasharray:none;stroke-opacity:1"
             d="m 538.25,31.91 0,310.63" />
          <path
             inkscape:connector-curvature="0"
             id="path3475"
             style="fill:none;stroke:#f8766d;stroke-width:1.07000005;stroke-linecap:butt;stroke-linejoin:round;stroke-miterlimit:10;stroke-dasharray:none;stroke-opacity:1"
             d="m 74.19,328.42 1.55,0 1.55,0 1.54,0 1.55,0 1.55,0 1.54,0 1.55,0 1.55,0 1.54,0 1.55,0 1.55,0 1.55,0 1.54,0 1.55,0 1.55,0 1.54,0 1.55,0 1.55,0 1.54,0 1.55,0 1.55,0 1.54,0 1.55,0 1.55,0 1.54,0 1.55,0 1.55,0 1.55,0 1.54,0 1.55,0 1.55,0 1.54,0 1.55,0 1.55,0 1.54,0 1.55,0 1.55,0 1.54,0 1.55,0 1.55,0 1.54,0 1.55,0 1.55,0 1.54,0 1.55,0 1.55,0 1.55,0 1.54,0 1.55,0 1.55,0 1.54,0 1.55,0 1.55,0 1.54,0 1.55,0 1.55,0 1.54,0 1.55,0 1.55,0 1.54,0 1.55,0 1.55,0 1.54,0 1.55,0 1.55,0 1.55,0 1.54,0 1.55,0 1.55,0 1.54,0 1.55,0 1.55,0 1.54,0 1.55,0 1.55,0 1.54,0 1.55,0 1.55,0 1.54,0 1.55,0 1.55,0 1.54,0 1.55,0 1.55,0 1.55,0 1.54,0 1.55,0 1.55,0 1.54,0 1.55,0 1.55,0 1.54,0 1.55,0 1.55,0 1.54,0 1.55,0 1.55,0 1.54,0 1.55,0 1.55,0 1.54,0 1.55,0 1.55,0 1.55,0 1.54,0 1.55,0 1.55,0 1.54,0 1.55,0 1.55,-70.6 1.54,0 1.55,0 1.55,0 1.54,0 1.55,0 1.55,0 1.54,0 1.55,0 1.55,0 1.54,-52.95 1.55,0 1.55,0 1.55,0 1.54,0 1.55,0 1.55,0 1.54,0 1.55,0 1.55,0 1.54,0 1.55,0 1.55,0 1.54,0 1.55,0 1.55,0 1.54,0 1.55,0 1.55,0 1.54,0 1.55,-39.71 1.55,0 1.55,0 1.54,0 1.55,0 1.55,0 1.54,0 1.55,0 1.55,0 1.54,0 1.55,0 1.55,0 1.54,0 1.55,0 1.55,0 1.54,-29.78 1.55,0 1.55,0 1.54,0 1.55,0 1.55,0 1.55,0 1.54,0 1.55,0 1.55,0 1.54,0 1.55,0 1.55,0 1.54,0 1.55,0 1.55,0 1.54,0 1.55,0 1.55,0 1.54,0 1.55,0 1.55,0 1.55,0 1.54,0 1.55,0 1.55,0 1.54,0 1.55,0 1.55,0 1.54,0 1.55,-22.34 1.55,0 1.54,0 1.55,0 1.55,0 1.54,0 1.55,0 1.55,0 1.54,0 1.55,0 1.55,0 1.55,0 1.54,-16.76 1.55,0 1.55,0 1.54,0 1.55,0 1.55,0 1.54,0 1.55,0 1.55,0 1.54,-12.56 1.55,0 1.55,0 1.54,0 1.55,0 1.55,0 1.54,0 1.55,0 1.55,0 1.55,0 1.54,0 1.55,0 1.55,0 1.54,0 1.55,0 1.55,0 1.54,0 1.55,0 1.55,0 1.54,0 1.55,-9.42 1.55,0 1.54,0 1.55,0 1.55,0 1.54,0 1.55,0 1.55,0 1.55,0 1.54,0 1.55,0 1.55,-7.07 1.54,0 1.55,0 1.55,0 1.54,0 1.55,0 1.55,0 1.54,0 1.55,0 1.55,0 1.54,0 1.55,-5.3 1.55,0 1.54,0 1.55,0 1.55,0 1.55,0 1.54,0 1.55,0 1.55,0 1.54,-3.98 1.55,0 1.55,0 1.54,0 1.55,0 1.55,0 1.54,0 1.55,0 1.55,0 1.54,-2.98 1.55,0 1.55,0 1.54,0 1.55,0 1.55,0 1.55,0 1.54,0 1.55,0 1.55,0 1.54,0 1.55,0 1.55,-2.24 1.54,0 1.55,0 1.55,0 1.54,0 1.55,0 1.55,0 1.54,0 1.55,0 1.55,-1.67 1.54,0 1.55,0 1.55,0 1.55,0 1.54,0 1.55,0 1.55,0 1.54,0 1.55,-1.26 1.55,0 1.54,0 1.55,0" />
          <path
             inkscape:connector-curvature="0"
             id="path3477"
             style="fill:none;stroke:#7cae00;stroke-width:1.07000005;stroke-linecap:butt;stroke-linejoin:round;stroke-miterlimit:10;stroke-dasharray:none;stroke-opacity:1"
             d="m 74.19,328.42 1.55,0 1.55,0 1.54,0 1.55,0 1.55,0 1.54,0 1.55,0 1.55,0 1.54,0 1.55,0 1.55,0 1.55,0 1.54,0 1.55,0 1.55,0 1.54,0 1.55,0 1.55,0 1.54,0 1.55,0 1.55,0 1.54,0 1.55,0 1.55,0 1.54,0 1.55,0 1.55,0 1.55,0 1.54,0 1.55,0 1.55,0 1.54,0 1.55,0 1.55,0 1.54,0 1.55,0 1.55,0 1.54,0 1.55,0 1.55,0 1.54,0 1.55,0 1.55,0 1.54,0 1.55,0 1.55,0 1.55,0 1.54,0 1.55,0 1.55,0 1.54,0 1.55,-70.6 1.55,0 1.54,0 1.55,0 1.55,0 1.54,0 1.55,0 1.55,0 1.54,0 1.55,0 1.55,0 1.54,0 1.55,0 1.55,0 1.55,0 1.54,0 1.55,0 1.55,0 1.54,0 1.55,0 1.55,0 1.54,0 1.55,0 1.55,0 1.54,0 1.55,0 1.55,0 1.54,0 1.55,0 1.55,0 1.54,0 1.55,0 1.55,0 1.55,0 1.54,0 1.55,0 1.55,0 1.54,0 1.55,0 1.55,0 1.54,0 1.55,0 1.55,0 1.54,0 1.55,-52.95 1.55,0 1.54,0 1.55,0 1.55,0 1.54,0 1.55,0 1.55,0 1.55,0 1.54,0 1.55,-39.71 1.55,0 1.54,0 1.55,0 1.55,0 1.54,0 1.55,0 1.55,0 1.54,0 1.55,0 1.55,0 1.54,0 1.55,0 1.55,0 1.54,0 1.55,0 1.55,0 1.55,0 1.54,0 1.55,0 1.55,0 1.54,0 1.55,0 1.55,0 1.54,0 1.55,0 1.55,0 1.54,-29.78 1.55,0 1.55,0 1.54,0 1.55,0 1.55,0 1.54,0 1.55,0 1.55,0 1.55,0 1.54,0 1.55,0 1.55,-22.34 1.54,0 1.55,0 1.55,0 1.54,0 1.55,0 1.55,0 1.54,0 1.55,0 1.55,-16.76 1.54,0 1.55,0 1.55,0 1.54,0 1.55,0 1.55,0 1.55,0 1.54,0 1.55,0 1.55,-12.56 1.54,0 1.55,0 1.55,0 1.54,0 1.55,0 1.55,0 1.54,0 1.55,0 1.55,0 1.54,0 1.55,0 1.55,0 1.55,0 1.54,0 1.55,-9.42 1.55,0 1.54,0 1.55,0 1.55,0 1.54,0 1.55,0 1.55,0 1.54,0 1.55,0 1.55,0 1.54,0 1.55,0 1.55,-7.07 1.54,0 1.55,0 1.55,0 1.55,0 1.54,0 1.55,0 1.55,0 1.54,0 1.55,-5.3 1.55,0 1.54,0 1.55,0 1.55,0 1.54,0 1.55,0 1.55,0 1.54,0 1.55,-3.98 1.55,0 1.54,0 1.55,0 1.55,0 1.55,0 1.54,0 1.55,0 1.55,0 1.54,-2.98 1.55,0 1.55,0 1.54,0 1.55,0 1.55,0 1.54,0 1.55,0 1.55,0 1.54,0 1.55,0 1.55,0 1.54,0 1.55,-2.24 1.55,0 1.55,0 1.54,0 1.55,0 1.55,0 1.54,0 1.55,0 1.55,0 1.54,-1.67 1.55,0 1.55,0 1.54,0 1.55,0 1.55,0 1.54,0 1.55,0 1.55,0 1.54,-1.26 1.55,0 1.55,0 1.55,0 1.54,0 1.55,0 1.55,0 1.54,0 1.55,0 1.55,-0.94 1.54,0 1.55,0 1.55,0 1.54,0 1.55,0 1.55,0 1.54,0 1.55,0 1.55,-0.71 1.54,0 1.55,0 1.55,0 1.55,0 1.54,0 1.55,0 1.55,0 1.54,0 1.55,-0.53 1.55,0 1.54,0 1.55,0 1.55,0 1.54,0 1.55,0 1.55,0 1.54,0 1.55,-0.4 1.55,0 1.54,0 1.55,0 1.55,0 1.55,0 1.54,0 1.55,0 1.55,0 1.54,-0.3 1.55,0 1.55,0 1.54,0 1.55,0" />
          <path
             inkscape:connector-curvature="0"
             id="path3479"
             style="fill:none;stroke:#00bfc4;stroke-width:1.07000005;stroke-linecap:butt;stroke-linejoin:round;stroke-miterlimit:10;stroke-dasharray:none;stroke-opacity:1"
             d="m 74.19,328.42 1.55,0 1.55,0 1.54,0 1.55,0 1.55,0 1.54,0 1.55,0 1.55,0 1.54,0 1.55,0 1.55,0 1.55,0 1.54,0 1.55,0 1.55,0 1.54,0 1.55,0 1.55,0 1.54,0 1.55,0 1.55,0 1.54,0 1.55,0 1.55,0 1.54,0 1.55,0 1.55,0 1.55,0 1.54,0 1.55,0 1.55,0 1.54,0 1.55,0 1.55,0 1.54,0 1.55,0 1.55,0 1.54,0 1.55,0 1.55,0 1.54,0 1.55,0 1.55,0 1.54,0 1.55,0 1.55,0 1.55,0 1.54,0 1.55,0 1.55,0 1.54,0 1.55,0 1.55,0 1.54,0 1.55,0 1.55,0 1.54,0 1.55,0 1.55,0 1.54,0 1.55,-70.6 1.55,0 1.54,0 1.55,0 1.55,0 1.55,0 1.54,0 1.55,0 1.55,0 1.54,0 1.55,0 1.55,0 1.54,0 1.55,0 1.55,0 1.54,0 1.55,0 1.55,0 1.54,0 1.55,0 1.55,0 1.54,0 1.55,0 1.55,0 1.55,0 1.54,0 1.55,0 1.55,0 1.54,0 1.55,0 1.55,0 1.54,-52.95 1.55,0 1.55,0 1.54,0 1.55,0 1.55,0 1.54,0 1.55,0 1.55,0 1.54,0 1.55,0 1.55,0 1.55,0 1.54,0 1.55,0 1.55,0 1.54,0 1.55,0 1.55,0 1.54,0 1.55,0 1.55,0 1.54,0 1.55,0 1.55,0 1.54,0 1.55,0 1.55,0 1.54,0 1.55,0 1.55,0 1.55,0 1.54,0 1.55,0 1.55,0 1.54,0 1.55,0 1.55,0 1.54,-39.71 1.55,0 1.55,0 1.54,0 1.55,0 1.55,0 1.54,0 1.55,0 1.55,0 1.54,0 1.55,0 1.55,0 1.55,0 1.54,0 1.55,0 1.55,0 1.54,0 1.55,0 1.55,0 1.54,0 1.55,0 1.55,0 1.54,0 1.55,0 1.55,-29.78 1.54,0 1.55,0 1.55,0 1.54,0 1.55,0 1.55,0 1.55,0 1.54,0 1.55,0 1.55,0 1.54,0 1.55,0 1.55,0 1.54,0 1.55,0 1.55,0 1.54,0 1.55,0 1.55,0 1.54,0 1.55,-22.34 1.55,0 1.55,0 1.54,0 1.55,0 1.55,0 1.54,0 1.55,0 1.55,0 1.54,0 1.55,0 1.55,0 1.54,0 1.55,0 1.55,0 1.54,0 1.55,0 1.55,0 1.54,-16.76 1.55,0 1.55,0 1.55,0 1.54,0 1.55,0 1.55,0 1.54,0 1.55,0 1.55,0 1.54,-12.56 1.55,0 1.55,0 1.54,0 1.55,0 1.55,0 1.54,0 1.55,0 1.55,0 1.54,0 1.55,0 1.55,0 1.55,0 1.54,0 1.55,-9.42 1.55,0 1.54,0 1.55,0 1.55,0 1.54,0 1.55,0 1.55,0 1.54,0 1.55,-7.07 1.55,0 1.54,0 1.55,0 1.55,0 1.54,0 1.55,0 1.55,0 1.55,0 1.54,0 1.55,0 1.55,0 1.54,0 1.55,0 1.55,0 1.54,0 1.55,0 1.55,0 1.54,0 1.55,0 1.55,0 1.54,0 1.55,0 1.55,0 1.54,0 1.55,-5.3 1.55,0 1.55,0 1.54,0 1.55,0 1.55,0 1.54,0 1.55,0 1.55,0 1.54,0 1.55,0 1.55,0 1.54,0 1.55,0 1.55,-3.98 1.54,0 1.55,0 1.55,0 1.54,0 1.55,0 1.55,0 1.55,0 1.54,0 1.55,0 1.55,0 1.54,0 1.55,0 1.55,-2.98 1.54,0 1.55,0 1.55,0 1.54,0 1.55,0 1.55,0 1.54,0 1.55,0 1.55,-2.24 1.54,0 1.55,0 1.55,0 1.55,0 1.54,0 1.55,0 1.55,0 1.54,0 1.55,-1.67 1.55,0 1.54,0 1.55,0" />
          <path
             inkscape:connector-curvature="0"
             id="path3481"
             style="fill:none;stroke:#c77cff;stroke-width:1.07000005;stroke-linecap:butt;stroke-linejoin:round;stroke-miterlimit:10;stroke-dasharray:none;stroke-opacity:1"
             d="m 74.19,328.42 1.55,0 1.55,0 1.54,0 1.55,0 1.55,0 1.54,0 1.55,0 1.55,0 1.54,0 1.55,0 1.55,0 1.55,0 1.54,0 1.55,0 1.55,0 1.54,0 1.55,0 1.55,0 1.54,0 1.55,0 1.55,0 1.54,0 1.55,0 1.55,0 1.54,0 1.55,0 1.55,0 1.55,0 1.54,0 1.55,0 1.55,0 1.54,0 1.55,0 1.55,0 1.54,0 1.55,0 1.55,0 1.54,0 1.55,0 1.55,0 1.54,0 1.55,0 1.55,0 1.54,0 1.55,0 1.55,0 1.55,0 1.54,0 1.55,0 1.55,0 1.54,0 1.55,0 1.55,0 1.54,0 1.55,0 1.55,0 1.54,0 1.55,-70.6 1.55,0 1.54,0 1.55,0 1.55,0 1.54,0 1.55,0 1.55,0 1.55,0 1.54,0 1.55,0 1.55,0 1.54,0 1.55,0 1.55,0 1.54,0 1.55,0 1.55,0 1.54,0 1.55,0 1.55,0 1.54,0 1.55,0 1.55,0 1.54,-52.95 1.55,0 1.55,0 1.55,0 1.54,0 1.55,0 1.55,0 1.54,0 1.55,0 1.55,0 1.54,0 1.55,0 1.55,0 1.54,0 1.55,0 1.55,0 1.54,0 1.55,0 1.55,0 1.54,0 1.55,0 1.55,0 1.55,0 1.54,0 1.55,-39.71 1.55,0 1.54,0 1.55,0 1.55,0 1.54,0 1.55,0 1.55,0 1.54,0 1.55,0 1.55,0 1.54,0 1.55,0 1.55,0 1.54,-29.78 1.55,0 1.55,0 1.55,0 1.54,0 1.55,0 1.55,0 1.54,0 1.55,0 1.55,0 1.54,0 1.55,0 1.55,0 1.54,0 1.55,0 1.55,0 1.54,0 1.55,0 1.55,0 1.54,0 1.55,0 1.55,0 1.55,-22.34 1.54,0 1.55,0 1.55,0 1.54,0 1.55,0 1.55,0 1.54,0 1.55,0 1.55,0 1.54,-16.76 1.55,0 1.55,0 1.54,0 1.55,0 1.55,0 1.54,0 1.55,0 1.55,0 1.55,0 1.54,0 1.55,0 1.55,0 1.54,0 1.55,0 1.55,0 1.54,0 1.55,0 1.55,0 1.54,0 1.55,0 1.55,0 1.54,0 1.55,0 1.55,0 1.55,0 1.54,0 1.55,0 1.55,-12.56 1.54,0 1.55,0 1.55,0 1.54,0 1.55,0 1.55,0 1.54,0 1.55,0 1.55,0 1.54,0 1.55,0 1.55,0 1.54,0 1.55,0 1.55,0 1.55,0 1.54,0 1.55,-9.42 1.55,0 1.54,0 1.55,0 1.55,0 1.54,0 1.55,0 1.55,0 1.54,0 1.55,0 1.55,0 1.54,0 1.55,0 1.55,0 1.54,0 1.55,0 1.55,0 1.55,0 1.54,-7.07 1.55,0 1.55,0 1.54,0 1.55,0 1.55,0 1.54,0 1.55,0 1.55,0 1.54,0 1.55,0 1.55,0 1.54,0 1.55,0 1.55,0 1.54,0 1.55,0 1.55,0 1.55,0 1.54,0 1.55,0 1.55,0 1.54,-5.3 1.55,0 1.55,0 1.54,0 1.55,0 1.55,0 1.54,0 1.55,0 1.55,0 1.54,0 1.55,0 1.55,0 1.54,-3.98 1.55,0 1.55,0 1.55,0 1.54,0 1.55,0 1.55,0 1.54,0 1.55,0 1.55,-2.98 1.54,0 1.55,0 1.55,0 1.54,0 1.55,0 1.55,0 1.54,0 1.55,0 1.55,-2.24 1.54,0 1.55,0 1.55,0 1.55,0 1.54,0 1.55,0 1.55,0 1.54,0 1.55,-1.67 1.55,0 1.54,0 1.55,0 1.55,0 1.54,0 1.55,0 1.55,0 1.54,0 1.55,-1.26 1.55,0 1.54,0 1.55,0 1.55,0 1.55,0 1.54,0 1.55,0 1.55,0 1.54,-0.94 1.55,0 1.55,0 1.54,0 1.55,0 1.55,0" />
          <path
             inkscape:connector-curvature="0"
             id="path3483"
             style="fill:none;stroke:#333333;stroke-width:1.07000005;stroke-linecap:round;stroke-linejoin:round;stroke-miterlimit:10;stroke-dasharray:none;stroke-opacity:1"
             d="m 50.99,31.91 510.46,0 0,310.63 -510.46,0 0,-310.63 z" />
        </g>
      </g>
      <g
         id="g3485" />
      <g
         id="g3487" />
      <g
         id="g3489" />
      <g
         id="g3491" />
      <g
         id="g3493" />
      <g
         id="g3495" />
      <g
         id="g3497" />
      <g
         id="g3499" />
      <g
         id="g3501" />
      <g
         id="g3503" />
      <g
         id="g3505" />
      <g
         id="g3507" />
      <g
         id="g3509" />
      <g
         id="g3511" />
      <g
         id="g3513" />
      <g
         id="g3515">
        <text
           id="text3517"
           style="font-variant:normal;font-weight:normal;font-size:9px;font-family:Helvetica;-inkscape-font-specification:Helvetica;writing-mode:lr-tb;fill:#4d4d4d;fill-opacity:1;fill-rule:nonzero;stroke:none"
           transform="matrix(1,0,0,-1,18.54,42.79)">
          <tspan
             id="tspan3519"
             sodipodi:role="line"
             y="0"
             x="0 5.0040002 7.506 12.51 17.514 22.518">0.0000</tspan>
        </text>
        <text
           id="text3521"
           style="font-variant:normal;font-weight:normal;font-size:9px;font-family:Helvetica;-inkscape-font-specification:Helvetica;writing-mode:lr-tb;fill:#4d4d4d;fill-opacity:1;fill-rule:nonzero;stroke:none"
           transform="matrix(1,0,0,-1,18.54,113.39)">
          <tspan
             id="tspan3523"
             sodipodi:role="line"
             y="0"
             x="0 5.0040002 7.506 12.51 17.514 22.518">0.0005</tspan>
        </text>
        <text
           id="text3525"
           style="font-variant:normal;font-weight:normal;font-size:9px;font-family:Helvetica;-inkscape-font-specification:Helvetica;writing-mode:lr-tb;fill:#4d4d4d;fill-opacity:1;fill-rule:nonzero;stroke:none"
           transform="matrix(1,0,0,-1,18.54,183.99)">
          <tspan
             id="tspan3527"
             sodipodi:role="line"
             y="0"
             x="0 5.0040002 7.506 12.51 17.514 22.518">0.0010</tspan>
        </text>
        <text
           id="text3529"
           style="font-variant:normal;font-weight:normal;font-size:9px;font-family:Helvetica;-inkscape-font-specification:Helvetica;writing-mode:lr-tb;fill:#4d4d4d;fill-opacity:1;fill-rule:nonzero;stroke:none"
           transform="matrix(1,0,0,-1,18.54,254.59)">
          <tspan
             id="tspan3531"
             sodipodi:role="line"
             y="0"
             x="0 5.0040002 7.506 12.51 17.514 22.518">0.0015</tspan>
        </text>
        <text
           id="text3533"
           style="font-variant:normal;font-weight:normal;font-size:9px;font-family:Helvetica;-inkscape-font-specification:Helvetica;writing-mode:lr-tb;fill:#4d4d4d;fill-opacity:1;fill-rule:nonzero;stroke:none"
           transform="matrix(1,0,0,-1,18.54,325.19)">
          <tspan
             id="tspan3535"
             sodipodi:role="line"
             y="0"
             x="0 5.0040002 7.506 12.51 17.514 22.518">0.0020</tspan>
        </text>
      </g>
      <g
         id="g3537" />
      <g
         id="g3539">
        <path
           inkscape:connector-curvature="0"
           id="path3541"
           style="fill:none;stroke:#333333;stroke-width:1.07000005;stroke-linecap:butt;stroke-linejoin:round;stroke-miterlimit:10;stroke-dasharray:none;stroke-opacity:1"
           d="m 48.25,46.03 2.74,0" />
        <path
           inkscape:connector-curvature="0"
           id="path3543"
           style="fill:none;stroke:#333333;stroke-width:1.07000005;stroke-linecap:butt;stroke-linejoin:round;stroke-miterlimit:10;stroke-dasharray:none;stroke-opacity:1"
           d="m 48.25,116.62 2.74,0" />
        <path
           inkscape:connector-curvature="0"
           id="path3545"
           style="fill:none;stroke:#333333;stroke-width:1.07000005;stroke-linecap:butt;stroke-linejoin:round;stroke-miterlimit:10;stroke-dasharray:none;stroke-opacity:1"
           d="m 48.25,187.22 2.74,0" />
        <path
           inkscape:connector-curvature="0"
           id="path3547"
           style="fill:none;stroke:#333333;stroke-width:1.07000005;stroke-linecap:butt;stroke-linejoin:round;stroke-miterlimit:10;stroke-dasharray:none;stroke-opacity:1"
           d="m 48.25,257.82 2.74,0" />
        <path
           inkscape:connector-curvature="0"
           id="path3549"
           style="fill:none;stroke:#333333;stroke-width:1.07000005;stroke-linecap:butt;stroke-linejoin:round;stroke-miterlimit:10;stroke-dasharray:none;stroke-opacity:1"
           d="m 48.25,328.42 2.74,0" />
      </g>
      <g
         id="g3551" />
      <g
         id="g3553" />
      <g
         id="g3555" />
      <g
         id="g3557" />
      <g
         id="g3559" />
      <g
         id="g3561" />
      <g
         id="g3563" />
      <g
         id="g3565" />
      <g
         id="g3567" />
      <g
         id="g3569">
        <path
           inkscape:connector-curvature="0"
           id="path3571"
           style="fill:none;stroke:#333333;stroke-width:1.07000005;stroke-linecap:butt;stroke-linejoin:round;stroke-miterlimit:10;stroke-dasharray:none;stroke-opacity:1"
           d="m 74.19,29.17 0,2.74" />
        <path
           inkscape:connector-curvature="0"
           id="path3573"
           style="fill:none;stroke:#333333;stroke-width:1.07000005;stroke-linecap:butt;stroke-linejoin:round;stroke-miterlimit:10;stroke-dasharray:none;stroke-opacity:1"
           d="m 228.88,29.17 0,2.74" />
        <path
           inkscape:connector-curvature="0"
           id="path3575"
           style="fill:none;stroke:#333333;stroke-width:1.07000005;stroke-linecap:butt;stroke-linejoin:round;stroke-miterlimit:10;stroke-dasharray:none;stroke-opacity:1"
           d="m 383.56,29.17 0,2.74" />
        <path
           inkscape:connector-curvature="0"
           id="path3577"
           style="fill:none;stroke:#333333;stroke-width:1.07000005;stroke-linecap:butt;stroke-linejoin:round;stroke-miterlimit:10;stroke-dasharray:none;stroke-opacity:1"
           d="m 538.25,29.17 0,2.74" />
      </g>
      <g
         id="g3579" />
      <g
         id="g3581">
        <text
           id="text3583"
           style="font-variant:normal;font-weight:normal;font-size:9px;font-family:Helvetica;-inkscape-font-specification:Helvetica;writing-mode:lr-tb;fill:#4d4d4d;fill-opacity:1;fill-rule:nonzero;stroke:none"
           transform="matrix(1,0,0,-1,71.69,20.52)">
          <tspan
             id="tspan3585"
             y="0"
             x="0">0</tspan>
        </text>
        <text
           id="text3587"
           style="font-variant:normal;font-weight:normal;font-size:9px;font-family:Helvetica;-inkscape-font-specification:Helvetica;writing-mode:lr-tb;fill:#4d4d4d;fill-opacity:1;fill-rule:nonzero;stroke:none"
           transform="matrix(1,0,0,-1,221.37,20.52)">
          <tspan
             id="tspan3589"
             sodipodi:role="line"
             y="0"
             x="0 5.0040002 10.008">100</tspan>
        </text>
        <text
           id="text3591"
           style="font-variant:normal;font-weight:normal;font-size:9px;font-family:Helvetica;-inkscape-font-specification:Helvetica;writing-mode:lr-tb;fill:#4d4d4d;fill-opacity:1;fill-rule:nonzero;stroke:none"
           transform="matrix(1,0,0,-1,376.06,20.52)">
          <tspan
             id="tspan3593"
             sodipodi:role="line"
             y="0"
             x="0 5.0040002 10.008">200</tspan>
        </text>
        <text
           id="text3595"
           style="font-variant:normal;font-weight:normal;font-size:9px;font-family:Helvetica;-inkscape-font-specification:Helvetica;writing-mode:lr-tb;fill:#4d4d4d;fill-opacity:1;fill-rule:nonzero;stroke:none"
           transform="matrix(1,0,0,-1,530.74,20.52)">
          <tspan
             id="tspan3597"
             sodipodi:role="line"
             y="0"
             x="0 5.0040002 10.008">300</tspan>
        </text>
      </g>
      <g
         id="g3599" />
      <g
         id="g3601" />
      <g
         id="g3603" />
      <g
         id="g3605" />
      <g
         id="g3607" />
      <g
         id="g3609">
        <text
           id="text3611"
           style="font-variant:normal;font-weight:normal;font-size:11px;font-family:Helvetica;-inkscape-font-specification:Helvetica;writing-mode:lr-tb;fill:#000000;fill-opacity:1;fill-rule:nonzero;stroke:none"
           transform="matrix(1,0,0,-1,291.24,7.9)">
          <tspan
             id="tspan3613"
             sodipodi:role="line"
             y="0"
             x="0 6.1160002 12.232 18.348 23.848">epoch</tspan>
        </text>
      </g>
      <g
         id="g3615" />
      <g
         id="g3617">
        <text
           id="text3619"
           style="font-variant:normal;font-weight:normal;font-size:11px;font-family:Helvetica;-inkscape-font-specification:Helvetica;writing-mode:lr-tb;fill:#000000;fill-opacity:1;fill-rule:nonzero;stroke:none"
           transform="matrix(0,1,1,0,13.38,154.89)">
          <tspan
             id="tspan3621"
             sodipodi:role="line"
             y="0"
             x="0 2.4419999 8.5579996 14.674 18.612 24.728001 27.17 33.285999 39.402 45.826 49.379002 55.494999 58.553001">learning−rate</tspan>
        </text>
      </g>
      <g
         id="g3623" />
      <g
         id="g3625" />
      <g
         id="g3627" />
      <g
         id="g3629" />
      <g
         id="g3631" />
      <g
         id="g3633">
        <text
           id="text3635"
           style="font-variant:normal;font-weight:normal;font-size:16px;font-family:Helvetica;-inkscape-font-specification:Helvetica;writing-mode:lr-tb;fill:#000000;fill-opacity:1;fill-rule:nonzero;stroke:none"
           transform="matrix(1,0,0,-1,189.24,351.54)">
          <tspan
             id="tspan3637"
             sodipodi:role="line"
             y="0"
             x="0 8.8959999 17.792 26.688 32.416 41.312 44.863998 53.759998 62.655998 67.103996 72.272003 81.167999 85.615997 94.512001 98.959999 106.96 114.96 123.856 132.752 141.64799 150.54401 154.09599 162.992 167.44 175.03999 183.936 189.504 193.056 201.952 210.84801 214.39999 217.952 221.504 225.952">Learning rate schedule variability</tspan>
        </text>
      </g>
      <g
         id="g3639" />
      <g
         id="g3641" />
      <g
         id="g3643" />
      <g
         id="g3645" />
      <g
         id="g3647" />
      <g
         id="g3649" />
    </g>
    <g
       transform="matrix(1.25,0,0,-1.25,24.954463,949.81755)"
       inkscape:label="optimization_variablility_mae"
       id="g4202">
      <g
         id="g4204" />
      <g
         id="g4206" />
      <g
         id="g4208" />
      <g
         id="g4210" />
      <g
         id="g4212" />
      <g
         id="g4214" />
      <g
         id="g4216" />
      <g
         id="g4218" />
      <g
         id="g4220" />
      <g
         id="g4222" />
      <g
         id="g4224" />
      <g
         id="g4226" />
      <g
         id="g4228">
        <g
           clip-path="url(#clipPath4232)"
           id="g4230">
          <path
             inkscape:connector-curvature="0"
             id="path4236"
             style="fill:#ffffff;fill-opacity:1;fill-rule:nonzero;stroke:#ffffff;stroke-width:1.07000005;stroke-linecap:round;stroke-linejoin:round;stroke-miterlimit:10;stroke-dasharray:none;stroke-opacity:1"
             d="m 0,0 566.93,0 0,368.5 L 0,368.5 0,0 Z" />
        </g>
      </g>
      <g
         id="g4238" />
      <g
         id="g4240">
        <g
           clip-path="url(#clipPath4244)"
           id="g4242">
          <path
             inkscape:connector-curvature="0"
             id="path4248"
             style="fill:#ffffff;fill-opacity:1;fill-rule:nonzero;stroke:none"
             d="m 40.98,31.91 520.47,0 0,310.63 -520.47,0 0,-310.63 z" />
          <path
             inkscape:connector-curvature="0"
             id="path4250"
             style="fill:none;stroke:#ebebeb;stroke-width:0.52999997;stroke-linecap:butt;stroke-linejoin:round;stroke-miterlimit:10;stroke-dasharray:none;stroke-opacity:1"
             d="m 40.98,93.09 520.47,0" />
          <path
             inkscape:connector-curvature="0"
             id="path4252"
             style="fill:none;stroke:#ebebeb;stroke-width:0.52999997;stroke-linecap:butt;stroke-linejoin:round;stroke-miterlimit:10;stroke-dasharray:none;stroke-opacity:1"
             d="m 40.98,187.22 520.47,0" />
          <path
             inkscape:connector-curvature="0"
             id="path4254"
             style="fill:none;stroke:#ebebeb;stroke-width:0.52999997;stroke-linecap:butt;stroke-linejoin:round;stroke-miterlimit:10;stroke-dasharray:none;stroke-opacity:1"
             d="m 40.98,281.35 520.47,0" />
          <path
             inkscape:connector-curvature="0"
             id="path4256"
             style="fill:none;stroke:#ebebeb;stroke-width:0.52999997;stroke-linecap:butt;stroke-linejoin:round;stroke-miterlimit:10;stroke-dasharray:none;stroke-opacity:1"
             d="m 143.5,31.91 0,310.63" />
          <path
             inkscape:connector-curvature="0"
             id="path4258"
             style="fill:none;stroke:#ebebeb;stroke-width:0.52999997;stroke-linecap:butt;stroke-linejoin:round;stroke-miterlimit:10;stroke-dasharray:none;stroke-opacity:1"
             d="m 301.22,31.91 0,310.63" />
          <path
             inkscape:connector-curvature="0"
             id="path4260"
             style="fill:none;stroke:#ebebeb;stroke-width:0.52999997;stroke-linecap:butt;stroke-linejoin:round;stroke-miterlimit:10;stroke-dasharray:none;stroke-opacity:1"
             d="m 458.93,31.91 0,310.63" />
          <path
             inkscape:connector-curvature="0"
             id="path4262"
             style="fill:none;stroke:#ebebeb;stroke-width:1.07000005;stroke-linecap:butt;stroke-linejoin:round;stroke-miterlimit:10;stroke-dasharray:none;stroke-opacity:1"
             d="m 40.98,46.03 520.47,0" />
          <path
             inkscape:connector-curvature="0"
             id="path4264"
             style="fill:none;stroke:#ebebeb;stroke-width:1.07000005;stroke-linecap:butt;stroke-linejoin:round;stroke-miterlimit:10;stroke-dasharray:none;stroke-opacity:1"
             d="m 40.98,140.16 520.47,0" />
          <path
             inkscape:connector-curvature="0"
             id="path4266"
             style="fill:none;stroke:#ebebeb;stroke-width:1.07000005;stroke-linecap:butt;stroke-linejoin:round;stroke-miterlimit:10;stroke-dasharray:none;stroke-opacity:1"
             d="m 40.98,234.29 520.47,0" />
          <path
             inkscape:connector-curvature="0"
             id="path4268"
             style="fill:none;stroke:#ebebeb;stroke-width:1.07000005;stroke-linecap:butt;stroke-linejoin:round;stroke-miterlimit:10;stroke-dasharray:none;stroke-opacity:1"
             d="m 40.98,328.42 520.47,0" />
          <path
             inkscape:connector-curvature="0"
             id="path4270"
             style="fill:none;stroke:#ebebeb;stroke-width:1.07000005;stroke-linecap:butt;stroke-linejoin:round;stroke-miterlimit:10;stroke-dasharray:none;stroke-opacity:1"
             d="m 64.64,31.91 0,310.63" />
          <path
             inkscape:connector-curvature="0"
             id="path4272"
             style="fill:none;stroke:#ebebeb;stroke-width:1.07000005;stroke-linecap:butt;stroke-linejoin:round;stroke-miterlimit:10;stroke-dasharray:none;stroke-opacity:1"
             d="m 222.36,31.91 0,310.63" />
          <path
             inkscape:connector-curvature="0"
             id="path4274"
             style="fill:none;stroke:#ebebeb;stroke-width:1.07000005;stroke-linecap:butt;stroke-linejoin:round;stroke-miterlimit:10;stroke-dasharray:none;stroke-opacity:1"
             d="m 380.07,31.91 0,310.63" />
          <path
             inkscape:connector-curvature="0"
             id="path4276"
             style="fill:none;stroke:#ebebeb;stroke-width:1.07000005;stroke-linecap:butt;stroke-linejoin:round;stroke-miterlimit:10;stroke-dasharray:none;stroke-opacity:1"
             d="m 537.79,31.91 0,310.63" />
          <path
             inkscape:connector-curvature="0"
             id="path4278"
             style="fill:none;stroke:#f8766d;stroke-width:1.07000005;stroke-linecap:butt;stroke-linejoin:round;stroke-miterlimit:10;stroke-dasharray:none;stroke-opacity:1"
             d="m 81.99,273.7 1.58,-11.49 1.57,-4.62 1.58,15.21 1.58,-27.01 1.58,3.15 1.57,-2.21 1.58,-4.52 1.58,-7.52 1.57,-3.47 1.58,4.79 1.58,32.11 1.58,-49.35 1.57,-0.59 1.58,-2.43 1.58,8.94 1.57,-13.41 1.58,7.53 1.58,-12.96 1.58,-2.74 1.57,-1 1.58,49.93 1.58,-58.29 1.57,9.85 1.58,-8.08 1.58,3.53 1.58,-10.94 1.57,2.65 1.58,1.98 1.58,6.08 1.57,-7.28 1.58,7.53 1.58,-14.64 1.58,24.16 1.57,-23.24 1.58,12.64 1.58,-6.05 1.57,-5.75 1.58,-3.95 1.58,12.4 1.58,-11.92 1.57,5.01 1.58,8.06 1.58,-10.88 1.57,-4.17 1.58,0.33 1.58,-1.71 1.58,3.16 1.57,11.11 1.58,-7.25 1.58,-7.18 1.57,0.73 1.58,-3.7 1.58,4.17 1.58,-2.99 1.57,-1.63 1.58,1.9 1.58,76.71 1.58,-78.63 1.57,3.27 1.58,-1.43 1.58,-5.65 1.57,-0.75 1.58,-3.97 1.58,8.46 1.58,-1.83 1.57,8.34 1.58,-8.87 1.58,-1.86 1.57,-1.63 1.58,-2.05 1.58,5.11 1.58,-6.3 1.57,36.58 1.58,-31.31 1.58,-3.39 1.57,16.09 1.58,-16.78 1.58,-1.63 1.58,53.56 1.57,-54.35 1.58,8.31 1.58,-2.06 1.57,-4.5 1.58,-1.85 1.58,3.71 1.58,-0.86 1.57,-3.57 1.58,7.02 1.58,-11.55 1.57,4.4 1.58,4.84 1.58,6.87 1.58,-11.26 1.57,1.19 1.58,0.83 1.58,-4.6 1.57,-0.85 1.58,1.56 1.58,-8.08 1.58,2.29 1.57,2.08 1.58,-3.75 1.58,-0.61 1.58,9.14 1.57,-5 1.58,-0.69 1.58,-1.69 1.57,2.75 1.58,-2.92 1.58,-5.6 1.58,2.83 1.57,-4.3 1.58,2.98 1.58,2.2 1.57,0.59 1.58,-3.22 1.58,0.03 1.58,1.03 1.57,-3.77 1.58,2.11 1.58,0.42 1.57,3.68 1.58,-6.21 1.58,7.87 1.58,-6.97 1.57,1.81 1.58,-1.88 1.58,1.25 1.57,-2.57 1.58,-0.04 1.58,3.88 1.58,-4.78 1.57,-0.58 1.58,-1.48 1.58,4.31 1.57,-3.67 1.58,0.86 1.58,-0.9 1.58,0.67 1.57,3.27 1.58,-3.6 1.58,1.4 1.57,4.96 1.58,-7.37 1.58,1.26 1.58,-1.37 1.57,1.2 1.58,-1.96 1.58,0.86 1.58,-2.11 1.57,1.03 1.58,1.31 1.58,0.29 1.57,-1.71 1.58,2.73 1.58,-2.73 1.58,0.31 1.57,-1.58 1.58,1.83 1.58,-1.12 1.57,0.06 1.58,1.85 1.58,-0.33 1.58,-2.31 1.57,2.23 1.58,-1.53 1.58,1.05 1.57,0.45 1.58,2.32 1.58,-2.78 1.58,9.21 1.57,-10.12 1.58,0.02 1.58,-0.08 1.57,-1.15 1.58,-0.57 1.58,1.28 1.58,-0.57 1.57,1.46 1.58,-0.75 1.58,-0.53 1.57,0.61 1.58,-0.3 1.58,-0.33 1.58,0.42 1.57,-0.66 1.58,-0.45 1.58,0.11 1.57,-0.16 1.58,0.68 1.58,0.02 1.58,0.14 1.57,0.2 1.58,-0.46 1.58,-0.66 1.58,-0.89 1.57,0.48 1.58,1.3 1.58,-0.43 1.57,-0.67 1.58,-0.11 1.58,1.44 1.58,-1.44 1.57,-0.23 1.58,-0.4 1.58,0.35 1.57,0.14 1.58,0.39 1.58,-0.03 1.58,-0.23 1.57,0.85 1.58,-1.28 1.58,0.26 1.57,0.41 1.58,-0.59 1.58,-0.39 1.58,0.64 1.57,-0.11 1.58,0.17 1.58,-0.1 1.57,0.08 1.58,0.15 1.58,0.29 1.58,-0.71 1.57,0.21 1.58,-0.7 1.58,-0.26 1.57,0.88 1.58,-0.01 1.58,0.48 1.58,-0.09 1.57,-0.41 1.58,-0.45 1.58,0.01 1.57,0.23 1.58,-0.64 1.58,0.59 1.58,-0.55 1.57,0.2 1.58,0.13 1.58,0.41 1.57,-0.07 1.58,-0.24 1.58,-0.15 1.58,0.06 1.57,0.08 1.58,-0.32 1.58,-0.01 1.58,-0.11 1.57,0.11 1.58,0.03 1.58,-0.07 1.57,0.26 1.58,-0.03 1.58,-0.17 1.58,0.23 1.57,-0.51 1.58,0.41 1.58,-0.2 1.57,-0.1 1.58,0.15 1.58,-0.06 1.58,0.09 1.57,-0.04 1.58,-0.21 1.58,0.22 1.57,-0.02 1.58,0.04 1.58,-0.16 1.58,0.12 1.57,-0.02 1.58,0.12 1.58,-0.23 1.57,0.1 1.58,0.15 1.58,-0.15 1.58,-0.02 1.57,-0.11 1.58,0.22 1.58,-0.13 1.57,-0.03 1.58,-0.11 1.58,0.09 1.58,0.18 1.57,-0.31 1.58,0.27 1.58,-0.15 1.57,0.16" />
          <path
             inkscape:connector-curvature="0"
             id="path4280"
             style="fill:none;stroke:#7cae00;stroke-width:1.07000005;stroke-linecap:butt;stroke-linejoin:round;stroke-miterlimit:10;stroke-dasharray:none;stroke-opacity:1"
             d="m 77.26,307.2 1.57,-10.87 1.58,-11.99 1.58,1.59 1.58,-15.01 1.57,15.91 1.58,-21.3 1.58,11.39 1.58,-22.2 1.57,-3.43 1.58,-3.41 1.58,-13.14 1.57,-2.76 1.58,-0.82 1.58,1.91 1.58,1.86 1.57,-19.29 1.58,47.55 1.58,-50.74 1.57,4.43 1.58,4.42 1.58,-7.29 1.58,8.49 1.57,-6.84 1.58,-11.7 1.58,11.73 1.57,-4.49 1.58,0.7 1.58,-0.29 1.58,-11.67 1.57,-1.13 1.58,1.93 1.58,-5.51 1.57,-1.2 1.58,-1.99 1.58,8.47 1.58,-4.76 1.57,-3.65 1.58,1.48 1.58,2.4 1.57,-1.87 1.58,3.12 1.58,6.6 1.58,2.09 1.57,-19.96 1.58,4.8 1.58,-6.81 1.57,1.61 1.58,-10.61 1.58,5.62 1.58,24.47 1.57,-28.47 1.58,7.51 1.58,-7.33 1.57,0.4 1.58,3.23 1.58,-9.58 1.58,9.63 1.57,-10.12 1.58,21.14 1.58,-17.7 1.58,-2.44 1.57,10.96 1.58,-10.44 1.58,5.53 1.57,-7.27 1.58,5.4 1.58,0.04 1.58,-1.75 1.57,-1.53 1.58,-0.98 1.58,6.25 1.57,-3.53 1.58,-4.31 1.58,4.03 1.58,5.23 1.57,-12.59 1.58,7.84 1.58,-9.76 1.57,4.35 1.58,0.78 1.58,4.26 1.58,11.62 1.57,-14.6 1.58,-3.05 1.58,6.85 1.57,-5.98 1.58,-2.14 1.58,-5.52 1.58,1.35 1.57,1.99 1.58,-2.37 1.58,8.51 1.57,-8.69 1.58,-0.52 1.58,0.03 1.58,4.58 1.57,26.49 1.58,-30.16 1.58,-2.09 1.57,-1.15 1.58,1.14 1.58,1.22 1.58,-0.73 1.57,-2.85 1.58,0.79 1.58,0.17 1.58,1.06 1.57,0.38 1.58,4.28 1.58,-6.54 1.57,0.08 1.58,-1.1 1.58,4.44 1.58,-3.93 1.57,-1.2 1.58,1.32 1.58,1.25 1.57,-1.13 1.58,0.64 1.58,3.58 1.58,-3 1.57,-1.4 1.58,1.18 1.58,0.82 1.57,-1.76 1.58,0.75 1.58,-4.73 1.58,2.14 1.57,-0.46 1.58,0.23 1.58,0.36 1.57,-1.9 1.58,0.82 1.58,-1.03 1.58,2.41 1.57,-0.89 1.58,-0.37 1.58,-1.03 1.57,3.37 1.58,-2.91 1.58,-0.29 1.58,0.31 1.57,0.15 1.58,1.1 1.58,-1.49 1.57,-1.92 1.58,0.66 1.58,-0.34 1.58,0.6 1.57,0.43 1.58,-0.85 1.58,0.75 1.58,-0.82 1.57,0.16 1.58,1.95 1.58,-2.67 1.57,-0.48 1.58,0.25 1.58,0.21 1.58,0.66 1.57,-1.37 1.58,0.58 1.58,1.04 1.57,-0.65 1.58,1.07 1.58,-0.63 1.58,0.22 1.57,-1.01 1.58,0.26 1.58,0.37 1.57,-0.85 1.58,-0.16 1.58,-0.33 1.58,-0.46 1.57,0.68 1.58,0.06 1.58,0.55 1.57,-0.94 1.58,0.5 1.58,-0.31 1.58,-0.25 1.57,0.47 1.58,0.21 1.58,0.03 1.57,-0.03 1.58,0.05 1.58,-0.1 1.58,-0.3 1.57,-0.2 1.58,0.61 1.58,-0.56 1.57,-0.15 1.58,0.27 1.58,-0.16 1.58,0.11 1.57,-0.16 1.58,0.4 1.58,-0.23 1.58,-0.15 1.57,0.41 1.58,-0.2 1.58,-0.59 1.57,0.56 1.58,-0.24 1.58,-0.21 1.58,0.31 1.57,-0.19 1.58,-0.06 1.58,0.12 1.57,0.18 1.58,-0.48 1.58,0.62 1.58,-0.34 1.57,-0.41 1.58,0.64 1.58,-0.46 1.57,0.26 1.58,0.43 1.58,-0.32 1.58,-0.16 1.57,0.08 1.58,0.17 1.58,-0.38 1.57,0.06 1.58,-0.06 1.58,-0.07 1.58,0.13 1.57,0.14 1.58,-0.08 1.58,0.14 1.57,-0.06 1.58,0.18 1.58,-0.32 1.58,0.2 1.57,-0.1 1.58,0.13 1.58,-0.32 1.57,0.04 1.58,0.25 1.58,-0.28 1.58,0.23 1.57,0.01 1.58,-0.27 1.58,0.07 1.57,0.07 1.58,-0.05 1.58,-0.01 1.58,0.03 1.57,-0.03 1.58,0.11 1.58,-0.08 1.58,0.1 1.57,-0.17 1.58,0.2 1.58,-0.1 1.57,-0.06 1.58,0.02 1.58,0.17 1.58,-0.18 1.57,0.1 1.58,-0.08 1.58,0 1.57,-0.01 1.58,0.1 1.58,-0.02 1.58,-0.06 1.57,0.03 1.58,-0.01 1.58,0 1.57,0.03 1.58,0.06 1.58,-0.08 1.58,-0.07 1.57,0.04 1.58,0.08 1.58,-0.02 1.57,-0.07 1.58,0.08 1.58,-0.04 1.58,-0.02 1.57,-0.06 1.58,0.04 1.58,-0.04 1.57,0.11 1.58,-0.09 1.58,0.07 1.58,0.02 1.57,-0.06 1.58,0.04 1.58,-0.05 1.57,0.08" />
          <path
             inkscape:connector-curvature="0"
             id="path4282"
             style="fill:none;stroke:#00bfc4;stroke-width:1.07000005;stroke-linecap:butt;stroke-linejoin:round;stroke-miterlimit:10;stroke-dasharray:none;stroke-opacity:1"
             d="m 75.68,313.74 1.58,12.03 1.57,-24.36 1.58,-22.44 1.58,0.18 1.58,-13.27 1.57,10.56 1.58,36.7 1.58,-33.94 1.58,-7.67 1.57,-12.17 1.58,-7.3 1.58,2.27 1.57,16.45 1.58,-28.31 1.58,-4.26 1.58,87.39 1.57,-77.62 1.58,-13.58 1.58,9.84 1.57,-20.43 1.58,3.29 1.58,-9.38 1.58,17.5 1.57,6.02 1.58,15.09 1.58,-40.91 1.57,3.38 1.58,61.92 1.58,-61.79 1.58,-13.12 1.57,2.14 1.58,16.13 1.58,-7.54 1.57,47.47 1.58,-44.37 1.58,-21.65 1.58,16.3 1.57,-11.81 1.58,8.03 1.58,-4.47 1.57,0.52 1.58,3.29 1.58,14.78 1.58,-30.67 1.57,11.72 1.58,-9.3 1.58,5.73 1.57,-1.98 1.58,21.75 1.58,30.31 1.58,-34.82 1.57,-8.74 1.58,-7.75 1.58,4.83 1.57,-17.88 1.58,8.39 1.58,-9.89 1.58,1 1.57,-2.07 1.58,-5.49 1.58,1.97 1.58,6.04 1.57,7.87 1.58,-9.94 1.58,7.33 1.57,-10.96 1.58,7.87 1.58,-7.68 1.58,-4.51 1.57,6.9 1.58,-3.33 1.58,-2.64 1.57,4.85 1.58,-1.6 1.58,-9.53 1.58,8.08 1.57,1.41 1.58,6.1 1.58,18.66 1.57,-28.4 1.58,3.5 1.58,-2.59 1.58,-3.16 1.57,-0.43 1.58,-4.8 1.58,0.78 1.57,1.85 1.58,-1.68 1.58,14.46 1.58,-6.98 1.57,-1.41 1.58,-7.96 1.58,0.41 1.57,-1.78 1.58,-0.31 1.58,-0.57 1.58,2.23 1.57,0.21 1.58,2.4 1.58,-5.06 1.57,10.27 1.58,-10.4 1.58,1.56 1.58,-1.9 1.57,2.11 1.58,4.86 1.58,-5.87 1.58,2.77 1.57,-4.57 1.58,1.26 1.58,5.77 1.57,-0.17 1.58,-7.66 1.58,0.76 1.58,-0.3 1.57,2.21 1.58,1.62 1.58,5 1.57,-8.64 1.58,0.15 1.58,0.6 1.58,3.1 1.57,-4.49 1.58,-1.77 1.58,-0.42 1.57,1.09 1.58,-2.16 1.58,-1.76 1.58,0.69 1.57,2.35 1.58,-2.76 1.58,2.66 1.57,2.17 1.58,-3.92 1.58,-0.22 1.58,2.94 1.57,-5.8 1.58,3.08 1.58,1.96 1.57,-2.54 1.58,0.74 1.58,2.01 1.58,-1.09 1.57,-0.76 1.58,2.2 1.58,-3.13 1.57,-1.35 1.58,0.07 1.58,0.66 1.58,-1.23 1.57,1.41 1.58,-2.94 1.58,1.99 1.58,-0.81 1.57,1.04 1.58,-1.42 1.58,1.25 1.57,-2.88 1.58,4.93 1.58,-2.2 1.58,-0.62 1.57,0.05 1.58,0.73 1.58,-2.05 1.57,2.71 1.58,-1.48 1.58,-1.62 1.58,-0.26 1.57,-1.63 1.58,1.76 1.58,-1.11 1.57,-0.04 1.58,0.24 1.58,-0.33 1.58,3.02 1.57,-4.21 1.58,2.03 1.58,-1.16 1.57,-0.47 1.58,0.41 1.58,0.01 1.58,1.11 1.57,-1.15 1.58,0.53 1.58,-0.12 1.57,-1.22 1.58,1.19 1.58,-0.89 1.58,0.49 1.57,0.9 1.58,-1.21 1.58,-0.23 1.57,-0.1 1.58,0.54 1.58,-0.64 1.58,-1.38 1.57,0.82 1.58,0.27 1.58,-0.24 1.58,-1.23 1.57,0.71 1.58,0.57 1.58,-0.48 1.57,-0.58 1.58,1.29 1.58,-0.86 1.58,0.83 1.57,-0.54 1.58,-0.71 1.58,0.62 1.57,-0.49 1.58,0.41 1.58,-0.27 1.58,-0.08 1.57,0.3 1.58,-0.1 1.58,0.31 1.57,0.39 1.58,-1.02 1.58,0.08 1.58,-0.38 1.57,-0.15 1.58,0.21 1.58,-0.12 1.57,0.18 1.58,0.2 1.58,0.48 1.58,-0.43 1.57,-0.58 1.58,0.2 1.58,0.22 1.57,-0.28 1.58,0.3 1.58,-0.59 1.58,0.32 1.57,-0.28 1.58,0.74 1.58,0.18 1.57,0.28 1.58,-1.24 1.58,0.72 1.58,0.21 1.57,-0.06 1.58,-0.75 1.58,-0.14 1.57,0.71 1.58,-0.4 1.58,-0.51 1.58,0.7 1.57,-0.58 1.58,-0.02 1.58,-0.08 1.58,0.43 1.57,-0.27 1.58,0.23 1.58,-0.25 1.57,0.28 1.58,-0.09 1.58,-0.09 1.58,0.13 1.57,-0.65 1.58,0.25 1.58,-0.11 1.57,-0.01 1.58,0.35 1.58,0.23 1.58,-0.51 1.57,0.35 1.58,-0.03 1.58,-0.31 1.57,0.09 1.58,-0.05 1.58,0.01 1.58,0.08 1.57,-0.08 1.58,0.1 1.58,-0.24 1.57,0.09 1.58,0.13 1.58,-0.27 1.58,0.31 1.57,-0.12 1.58,-0.23 1.58,0.52 1.57,-0.56 1.58,0.89 1.58,-0.67 1.58,-0.1 1.57,-0.17 1.58,0.15 1.58,-0.2 1.57,0.19" />
          <path
             inkscape:connector-curvature="0"
             id="path4284"
             style="fill:none;stroke:#c77cff;stroke-width:1.07000005;stroke-linecap:butt;stroke-linejoin:round;stroke-miterlimit:10;stroke-dasharray:none;stroke-opacity:1"
             d="m 77.26,309.6 1.57,-0.23 1.58,-16.29 1.58,8.19 1.58,23.01 1.57,-53.06 1.58,10.02 1.58,-18.24 1.58,-14.11 1.57,-3.82 1.58,-10.76 1.58,-6.03 1.57,1.14 1.58,73.6 1.58,-71.03 1.58,-5.09 1.57,-9.65 1.58,4.92 1.58,-3.35 1.57,-4.91 1.58,39.29 1.58,-49.25 1.58,1.16 1.57,-1.59 1.58,-7.88 1.58,5.08 1.57,1.95 1.58,14.07 1.58,47.62 1.58,-73.57 1.57,-1.42 1.58,19.9 1.58,-20.19 1.57,0.13 1.58,-1.21 1.58,-2.31 1.58,-1.78 1.57,4.99 1.58,-6.67 1.58,3.96 1.57,-11.11 1.58,5.51 1.58,9.43 1.58,-8.81 1.57,8.1 1.58,41.24 1.58,-17.83 1.57,-31.41 1.58,4.58 1.58,1.03 1.58,-10.84 1.57,-1.56 1.58,-0.87 1.58,-2.14 1.57,-1.72 1.58,3.06 1.58,-4.1 1.58,2.78 1.57,10.63 1.58,-16.57 1.58,1.47 1.58,-0.65 1.57,0.07 1.58,-1.91 1.58,-1.75 1.57,3.35 1.58,-1.99 1.58,-0.6 1.58,3.74 1.57,0.86 1.58,-2.37 1.58,1.4 1.57,1.48 1.58,18.57 1.58,-22.57 1.58,0.06 1.57,-5.47 1.58,6.51 1.58,-7.73 1.57,1.51 1.58,-4.45 1.58,2.94 1.58,-0.97 1.57,-0.85 1.58,2.15 1.58,-2.6 1.57,2.94 1.58,-2.92 1.58,-1.66 1.58,5.34 1.57,0.32 1.58,-1.87 1.58,-1.72 1.57,1.45 1.58,-0.91 1.58,0.7 1.58,0.6 1.57,-2.94 1.58,-1.85 1.58,1.94 1.57,-4.02 1.58,-0.51 1.58,-1.92 1.58,2.78 1.57,-0.14 1.58,-0.23 1.58,0.28 1.58,-0.48 1.57,-0.34 1.58,4.8 1.58,-5.18 1.57,2.13 1.58,-4.56 1.58,1.08 1.58,-0.17 1.57,-0.81 1.58,0.47 1.58,-1.17 1.57,1.34 1.58,0.89 1.58,0.09 1.58,0.52 1.57,-2.43 1.58,1.99 1.58,-2.48 1.57,2.31 1.58,0.78 1.58,-0.62 1.58,0.84 1.57,-0.76 1.58,-1.18 1.58,-0.46 1.57,2.83 1.58,-1.83 1.58,-3.51 1.58,0.39 1.57,0.42 1.58,-0.75 1.58,1.79 1.57,-0.86 1.58,1.46 1.58,-0.63 1.58,-0.69 1.57,-0.91 1.58,0.88 1.58,-0.64 1.57,-0.86 1.58,0.99 1.58,-0.99 1.58,1.32 1.57,-1.4 1.58,0.25 1.58,0.03 1.58,-0.61 1.57,2.55 1.58,-1.44 1.58,-0.95 1.57,0.18 1.58,2.74 1.58,-2.45 1.58,0.86 1.57,-0.51 1.58,-1.18 1.58,0.33 1.57,0.17 1.58,0 1.58,0.96 1.58,-0.29 1.57,-0.8 1.58,-0.02 1.58,0.11 1.57,-0.22 1.58,-0.54 1.58,0.5 1.58,-0.82 1.57,0.62 1.58,-0.42 1.58,0.18 1.57,0.74 1.58,-1.37 1.58,-0.2 1.58,0.73 1.57,0.27 1.58,0.15 1.58,-0.46 1.57,0.18 1.58,-0.76 1.58,0.46 1.58,1.54 1.57,-0.82 1.58,-0.78 1.58,0.05 1.57,0.62 1.58,-1.23 1.58,0.62 1.58,-0.13 1.57,-0.17 1.58,0.24 1.58,-0.63 1.58,0.35 1.57,0.12 1.58,0.19 1.58,-0.14 1.57,-0.06 1.58,0.47 1.58,-0.34 1.58,-0.39 1.57,1.48 1.58,-1.31 1.58,-0.61 1.57,0.1 1.58,0.18 1.58,-0.07 1.58,0.77 1.57,-0.34 1.58,0.14 1.58,-0.49 1.57,-0.03 1.58,-0.31 1.58,0.4 1.58,-0.48 1.57,0.28 1.58,0.29 1.58,-0.1 1.57,0.11 1.58,0.12 1.58,0.4 1.58,0.05 1.57,-0.56 1.58,-0.01 1.58,-0.38 1.57,0.31 1.58,-0.72 1.58,0.81 1.58,-0.42 1.57,-0.18 1.58,0.31 1.58,0.11 1.57,-0.31 1.58,0.02 1.58,-0.03 1.58,0.08 1.57,-0.22 1.58,0.37 1.58,-0.24 1.57,0.02 1.58,0.02 1.58,-0.09 1.58,0.31 1.57,-0.2 1.58,0.03 1.58,-0.21 1.58,0.03 1.57,0.01 1.58,0.49 1.58,-0.34 1.57,-0.14 1.58,0.16 1.58,0.21 1.58,-0.23 1.57,0.05 1.58,0.03 1.58,-0.26 1.57,0.24 1.58,-0.34 1.58,0.45 1.58,-0.15 1.57,-0.33 1.58,0.27 1.58,0.07 1.57,-0.2 1.58,0.16 1.58,-0.12 1.58,0.03 1.57,-0.13 1.58,0.17 1.58,-0.06 1.57,0.28 1.58,-0.45 1.58,0.01 1.58,0.16 1.57,0.05 1.58,-0.1 1.58,0.08 1.57,0.03 1.58,-0.09 1.58,0 1.58,-0.02 1.57,-0.14 1.58,0.09 1.58,-0.02 1.57,-0.06 1.58,-0.09" />
          <path
             inkscape:connector-curvature="0"
             id="path4286"
             style="fill:none;stroke:#333333;stroke-width:1.07000005;stroke-linecap:round;stroke-linejoin:round;stroke-miterlimit:10;stroke-dasharray:none;stroke-opacity:1"
             d="m 40.98,31.91 520.47,0 0,310.63 -520.47,0 0,-310.63 z" />
        </g>
      </g>
      <g
         id="g4288" />
      <g
         id="g4290" />
      <g
         id="g4292" />
      <g
         id="g4294" />
      <g
         id="g4296" />
      <g
         id="g4298" />
      <g
         id="g4300" />
      <g
         id="g4302" />
      <g
         id="g4304" />
      <g
         id="g4306" />
      <g
         id="g4308" />
      <g
         id="g4310" />
      <g
         id="g4312" />
      <g
         id="g4314" />
      <g
         id="g4316" />
      <g
         id="g4318">
        <text
           id="text4320"
           style="font-variant:normal;font-weight:normal;font-size:9px;font-family:Helvetica;-inkscape-font-specification:Helvetica;writing-mode:lr-tb;fill:#4d4d4d;fill-opacity:1;fill-rule:nonzero;stroke:none"
           transform="matrix(1,0,0,-1,18.54,42.8)">
          <tspan
             id="tspan4322"
             sodipodi:role="line"
             y="0"
             x="0 5.0040002 7.506 12.51">0.00</tspan>
        </text>
        <text
           id="text4324"
           style="font-variant:normal;font-weight:normal;font-size:9px;font-family:Helvetica;-inkscape-font-specification:Helvetica;writing-mode:lr-tb;fill:#4d4d4d;fill-opacity:1;fill-rule:nonzero;stroke:none"
           transform="matrix(1,0,0,-1,18.54,136.93)">
          <tspan
             id="tspan4326"
             sodipodi:role="line"
             y="0"
             x="0 5.0040002 7.506 12.51">0.05</tspan>
        </text>
        <text
           id="text4328"
           style="font-variant:normal;font-weight:normal;font-size:9px;font-family:Helvetica;-inkscape-font-specification:Helvetica;writing-mode:lr-tb;fill:#4d4d4d;fill-opacity:1;fill-rule:nonzero;stroke:none"
           transform="matrix(1,0,0,-1,18.54,231.06)">
          <tspan
             id="tspan4330"
             sodipodi:role="line"
             y="0"
             x="0 5.0040002 7.506 12.51">0.10</tspan>
        </text>
        <text
           id="text4332"
           style="font-variant:normal;font-weight:normal;font-size:9px;font-family:Helvetica;-inkscape-font-specification:Helvetica;writing-mode:lr-tb;fill:#4d4d4d;fill-opacity:1;fill-rule:nonzero;stroke:none"
           transform="matrix(1,0,0,-1,18.54,325.19)">
          <tspan
             id="tspan4334"
             sodipodi:role="line"
             y="0"
             x="0 5.0040002 7.506 12.51">0.15</tspan>
        </text>
      </g>
      <g
         id="g4336" />
      <g
         id="g4338">
        <path
           inkscape:connector-curvature="0"
           id="path4340"
           style="fill:none;stroke:#333333;stroke-width:1.07000005;stroke-linecap:butt;stroke-linejoin:round;stroke-miterlimit:10;stroke-dasharray:none;stroke-opacity:1"
           d="m 38.24,46.03 2.74,0" />
        <path
           inkscape:connector-curvature="0"
           id="path4342"
           style="fill:none;stroke:#333333;stroke-width:1.07000005;stroke-linecap:butt;stroke-linejoin:round;stroke-miterlimit:10;stroke-dasharray:none;stroke-opacity:1"
           d="m 38.24,140.16 2.74,0" />
        <path
           inkscape:connector-curvature="0"
           id="path4344"
           style="fill:none;stroke:#333333;stroke-width:1.07000005;stroke-linecap:butt;stroke-linejoin:round;stroke-miterlimit:10;stroke-dasharray:none;stroke-opacity:1"
           d="m 38.24,234.29 2.74,0" />
        <path
           inkscape:connector-curvature="0"
           id="path4346"
           style="fill:none;stroke:#333333;stroke-width:1.07000005;stroke-linecap:butt;stroke-linejoin:round;stroke-miterlimit:10;stroke-dasharray:none;stroke-opacity:1"
           d="m 38.24,328.42 2.74,0" />
      </g>
      <g
         id="g4348" />
      <g
         id="g4350" />
      <g
         id="g4352" />
      <g
         id="g4354" />
      <g
         id="g4356" />
      <g
         id="g4358" />
      <g
         id="g4360" />
      <g
         id="g4362" />
      <g
         id="g4364" />
      <g
         id="g4366">
        <path
           inkscape:connector-curvature="0"
           id="path4368"
           style="fill:none;stroke:#333333;stroke-width:1.07000005;stroke-linecap:butt;stroke-linejoin:round;stroke-miterlimit:10;stroke-dasharray:none;stroke-opacity:1"
           d="m 64.64,29.17 0,2.74" />
        <path
           inkscape:connector-curvature="0"
           id="path4370"
           style="fill:none;stroke:#333333;stroke-width:1.07000005;stroke-linecap:butt;stroke-linejoin:round;stroke-miterlimit:10;stroke-dasharray:none;stroke-opacity:1"
           d="m 222.36,29.17 0,2.74" />
        <path
           inkscape:connector-curvature="0"
           id="path4372"
           style="fill:none;stroke:#333333;stroke-width:1.07000005;stroke-linecap:butt;stroke-linejoin:round;stroke-miterlimit:10;stroke-dasharray:none;stroke-opacity:1"
           d="m 380.07,29.17 0,2.74" />
        <path
           inkscape:connector-curvature="0"
           id="path4374"
           style="fill:none;stroke:#333333;stroke-width:1.07000005;stroke-linecap:butt;stroke-linejoin:round;stroke-miterlimit:10;stroke-dasharray:none;stroke-opacity:1"
           d="m 537.79,29.17 0,2.74" />
      </g>
      <g
         id="g4376" />
      <g
         id="g4378">
        <text
           id="text4380"
           style="font-variant:normal;font-weight:normal;font-size:9px;font-family:Helvetica;-inkscape-font-specification:Helvetica;writing-mode:lr-tb;fill:#4d4d4d;fill-opacity:1;fill-rule:nonzero;stroke:none"
           transform="matrix(1,0,0,-1,62.14,20.52)">
          <tspan
             id="tspan4382"
             y="0"
             x="0">0</tspan>
        </text>
        <text
           id="text4384"
           style="font-variant:normal;font-weight:normal;font-size:9px;font-family:Helvetica;-inkscape-font-specification:Helvetica;writing-mode:lr-tb;fill:#4d4d4d;fill-opacity:1;fill-rule:nonzero;stroke:none"
           transform="matrix(1,0,0,-1,214.85,20.52)">
          <tspan
             id="tspan4386"
             sodipodi:role="line"
             y="0"
             x="0 5.0040002 10.008">100</tspan>
        </text>
        <text
           id="text4388"
           style="font-variant:normal;font-weight:normal;font-size:9px;font-family:Helvetica;-inkscape-font-specification:Helvetica;writing-mode:lr-tb;fill:#4d4d4d;fill-opacity:1;fill-rule:nonzero;stroke:none"
           transform="matrix(1,0,0,-1,372.57,20.52)">
          <tspan
             id="tspan4390"
             sodipodi:role="line"
             y="0"
             x="0 5.0040002 10.008">200</tspan>
        </text>
        <text
           id="text4392"
           style="font-variant:normal;font-weight:normal;font-size:9px;font-family:Helvetica;-inkscape-font-specification:Helvetica;writing-mode:lr-tb;fill:#4d4d4d;fill-opacity:1;fill-rule:nonzero;stroke:none"
           transform="matrix(1,0,0,-1,530.29,20.52)">
          <tspan
             id="tspan4394"
             sodipodi:role="line"
             y="0"
             x="0 5.0040002 10.008">300</tspan>
        </text>
      </g>
      <g
         id="g4396" />
      <g
         id="g4398" />
      <g
         id="g4400" />
      <g
         id="g4402" />
      <g
         id="g4404" />
      <g
         id="g4406">
        <text
           id="text4408"
           style="font-variant:normal;font-weight:normal;font-size:11px;font-family:Helvetica;-inkscape-font-specification:Helvetica;writing-mode:lr-tb;fill:#000000;fill-opacity:1;fill-rule:nonzero;stroke:none"
           transform="matrix(1,0,0,-1,286.23,7.9)">
          <tspan
             id="tspan4410"
             sodipodi:role="line"
             y="0"
             x="0 6.1160002 12.232 18.348 23.848">epoch</tspan>
        </text>
      </g>
      <g
         id="g4412" />
      <g
         id="g4414">
        <text
           id="text4416"
           style="font-variant:normal;font-weight:normal;font-size:11px;font-family:Helvetica;-inkscape-font-specification:Helvetica;writing-mode:lr-tb;fill:#000000;fill-opacity:1;fill-rule:nonzero;stroke:none"
           transform="matrix(0,1,1,0,13.38,149)">
          <tspan
             id="tspan4418"
             sodipodi:role="line"
             y="0"
             x="0 5.2249999 11.341 13.783 16.225 22.341 28.457001 31.514999 33.957001 40.073002 46.188999 52.612999 61.776001 69.112999">validation−MAE</tspan>
        </text>
      </g>
      <g
         id="g4420" />
      <g
         id="g4422" />
      <g
         id="g4424" />
      <g
         id="g4426" />
      <g
         id="g4428" />
      <g
         id="g4430">
        <text
           id="text4432"
           style="font-variant:normal;font-weight:normal;font-size:16px;font-family:Helvetica;-inkscape-font-specification:Helvetica;writing-mode:lr-tb;fill:#000000;fill-opacity:1;fill-rule:nonzero;stroke:none"
           transform="matrix(1,0,0,-1,210.44,351.54)">
          <tspan
             id="tspan4434"
             sodipodi:role="line"
             y="0"
             x="0 9.552 18.448 22 25.552 34.448002 43.344002 47.792 51.344002 60.240002 69.136002 73.584 82.480003 87.807999 93.136002 102.032 107.36 111.808 119.408 128.304 133.87199 137.424 146.32001 154.896 158.448 162 165.552 169.104 173.552">Validation error variablility</tspan>
        </text>
      </g>
      <g
         id="g4436" />
      <g
         id="g4438" />
      <g
         id="g4440" />
      <g
         id="g4442" />
      <g
         id="g4444" />
      <g
         id="g4446" />
    </g>
    <flowRoot
       xml:space="preserve"
       id="flowRoot4571"
       style="font-style:normal;font-weight:normal;font-size:40px;line-height:125%;font-family:sans-serif;letter-spacing:0px;word-spacing:0px;fill:#000000;fill-opacity:1;stroke:none;stroke-width:1px;stroke-linecap:butt;stroke-linejoin:miter;stroke-opacity:1"><flowRegion
         id="flowRegion4573"><rect
           id="rect4575"
           width="62.857143"
           height="48.57143"
           x="-548.57141"
           y="230.93364" /></flowRegion><flowPara
         id="flowPara4577"></flowPara></flowRoot>    <text
       xml:space="preserve"
       style="font-style:normal;font-weight:normal;font-size:40px;line-height:125%;font-family:sans-serif;letter-spacing:0px;word-spacing:0px;fill:#000000;fill-opacity:1;stroke:none;stroke-width:1px;stroke-linecap:butt;stroke-linejoin:miter;stroke-opacity:1"
       x="4.0755568"
       y="28.737713"
       id="text4579"
       sodipodi:linespacing="125%"><tspan
         sodipodi:role="line"
         x="4.0755568"
         y="28.737713"
         id="tspan4587">a</tspan></text>
    <text
       xml:space="preserve"
       style="font-style:normal;font-weight:normal;font-size:40px;line-height:125%;font-family:sans-serif;letter-spacing:0px;word-spacing:0px;fill:#000000;fill-opacity:1;stroke:none;stroke-width:1px;stroke-linecap:butt;stroke-linejoin:miter;stroke-opacity:1"
       x="-1.105805"
       y="519.58319"
       id="text4579-3"
       sodipodi:linespacing="125%"><tspan
         sodipodi:role="line"
         x="-1.105805"
         y="519.58319"
         id="tspan4587-6">b</tspan></text>
  </g>
</svg>
